# xmcd
#
# Track frame offsets:
#	150
#	11071
#	25258
#	38537
#	56808
#	67856
#	78695
#	89273
#	100755
#	110551
#	121662
#	132653
#	146246
#	159208
#	169190
#	179294
#	193651
#	206199
#	217586
#	228371
#	239810
#	251641
#	261857
#	273891
#	282276
#	297795
#	314989
#	330601
#
# Disc length: 4548
#
# Revision: 2
# Processed by: cddbd v1.5.1PL0 Copyright (c) Steve Scherf et al.
# Submitted via: audiograbber 1.83.01
# Normalized: r1:DSETVAR1
#
DISCID=a211c21c
DTITLE=Various Artist - 28 Country Ballads
DYEAR=1993
DGENRE=Country
TTITLE0=Hank Locklin - Send Me The Pillow
TTITLE1=Billie Jo Spears - Crying Time
TTITLE2=Patti Page - Tennessee Waltz
TTITLE3=Skeeter Davis - Just When I Needed You Most
TTITLE4=Geore Jones - Tender Years
TTITLE5=Sammi Smith - Help Me Make It Through The Night
TTITLE6=Freddy Fender - A Man Can Cry
TTITLE7=Dolly Parton - Makin' Believe
TTITLE8=Willie Nelson - Let's Pretend
TTITLE9=Anne Murray - Last Thing On My Mind
TTITLE10=Wanda Jackson - Tears Will Be The Chaser
TTITLE11=Kenny Rogers - I'm Gonna Sing You A Sad Song Suzy
TTITLE12=Patsy Cline - Fingerprints
TTITLE13=Conway Twitty - It's Only Make Believe
TTITLE14=Johnny Cash - Ballad Of A Teenage Queen
TTITLE15=George Jones - A Good Year For The Roses
TTITLE16=Gene Autry - Have I Told You Lately That I Love You
TTITLE17=Patsy Cline - The Heart you Break May Be Your Own
TTITLE18=Carl Belew - Am I That Easy To Forget
TTITLE19=Willie Nelson - Suffering In Silence
TTITLE20=Dolly Parton - Letter To Heaven
TTITLE21=Don Williams - Take My Hand For A While
TTITLE22=Pat Boone - Don't Want To Fall Away From You April
TTITLE23=Waylon Jennings - Abilene
TTITLE24=Anne Murray - There Goes My Everything
TTITLE25=Billie Jo Spears - For The Good Times
TTITLE26=Skeeter Davies - Desperado
TTITLE27=Kenny Rogers - She Even Woke Me Up To Say Goodbye
EXTD=
EXTT0=
EXTT1=
EXTT2=
EXTT3=
EXTT4=
EXTT5=
EXTT6=
EXTT7=
EXTT8=
EXTT9=
EXTT10=
EXTT11=
EXTT12=
EXTT13=
EXTT14=
EXTT15=
EXTT16=
EXTT17=
EXTT18=
EXTT19=
EXTT20=
EXTT21=
EXTT22=
EXTT23=
EXTT24=
EXTT25=
EXTT26=
EXTT27=
PLAYORDER=
